<?xml version="1.0" standalone="no"?>
<!DOCTYPE svg PUBLIC "-//W3C//DTD SVG 20010904//EN"
 "http://www.w3.org/TR/2001/REC-SVG-20010904/DTD/svg10.dtd">
<svg version="1.0" xmlns="http://www.w3.org/2000/svg"
 width="1300.000000pt" height="1808.000000pt" viewBox="0 0 1300.000000 1808.000000"
 preserveAspectRatio="xMidYMid meet">

<g transform="translate(0.000000,1808.000000) scale(0.100000,-0.100000)"
fill="#000000" stroke="none">
<path d="M2955 17498 c-3 -13 -19 -90 -36 -173 -114 -560 -276 -958 -525
-1292 -72 -96 -233 -264 -334 -348 -358 -298 -826 -471 -1433 -530 l-67 -7 0
-4334 c0 -4729 -4 -4393 56 -4799 251 -1707 779 -2848 1649 -3569 263 -218
619 -424 990 -574 334 -135 664 -230 1305 -377 694 -159 1018 -258 1291 -396
472 -236 733 -547 914 -1086 10 -29 22 -8 58 100 157 464 474 803 949 1013
304 135 565 211 1253 364 884 197 1268 314 1692 515 1278 608 1976 1790 2233
3780 53 410 50 140 50 4901 l0 4420 -162 43 c-517 137 -844 261 -1098 415
-443 269 -724 660 -896 1243 -41 141 -96 405 -121 583 l-18 130 -3872 0 -3873
0 -5 -22z m3878 -1437 c110 -188 277 -346 474 -445 175 -88 337 -135 717 -211
448 -89 607 -143 773 -261 62 -45 201 -189 275 -285 50 -66 120 -212 145 -299
27 -100 25 -338 -4 -446 -69 -252 -228 -494 -398 -606 -36 -23 -63 -44 -60
-46 2 -3 720 -4 1595 -3 l1590 2 0 -101 0 -100 -195 0 -195 0 0 -232 c0 -128
-3 -351 -7 -495 l-6 -263 199 -2 199 -3 3 -32 3 -33 -5120 0 -5121 0 0 50 0
50 185 0 185 0 0 480 0 480 -185 0 -185 0 0 110 0 110 1608 2 1607 3 -47 23
c-82 41 -163 98 -238 168 -319 301 -374 675 -160 1083 130 246 276 385 538
512 162 79 341 133 649 194 451 91 574 128 735 223 144 84 277 228 358 385 19
37 36 67 36 67 1 0 22 -36 47 -79z m-5143 -3881 c0 -14 10266 -14 10275 0 4 6
175 10 481 10 l474 0 0 -2902 c0 -1892 -4 -2945 -10 -3023 -141 -1652 -558
-2784 -1300 -3525 -395 -395 -876 -676 -1515 -883 -277 -90 -532 -155 -1215
-307 -997 -223 -1410 -403 -1760 -766 -115 -120 -189 -223 -275 -386 -31 -60
-63 -108 -70 -108 -8 0 -38 47 -69 105 -183 353 -432 593 -805 780 -312 156
-557 230 -1414 430 -558 130 -855 216 -1162 336 -180 70 -470 212 -617 302
-886 541 -1465 1433 -1806 2782 -84 330 -144 642 -215 1120 l-31 210 -3 2918
-3 2917 520 0 c340 0 520 -3 520 -10z"/>
<path d="M2350 13213 l-95 -4 0 -454 c0 -249 4 -457 8 -462 5 -4 245 -9 533
-11 l524 -3 0 471 0 470 -437 -2 c-241 -1 -481 -4 -533 -5z"/>
<path d="M3943 13213 l-113 -4 0 -464 0 -465 529 0 528 0 7 46 c3 26 6 234 6
464 l0 417 -167 6 c-159 7 -553 6 -790 0z"/>
<path d="M5380 12750 l0 -470 535 0 535 0 0 470 0 470 -535 0 -535 0 0 -470z"/>
<path d="M7140 12750 l0 -470 530 0 530 0 0 470 0 470 -530 0 -530 0 0 -470z"/>
<path d="M8730 12750 l0 -470 535 0 535 0 0 470 0 470 -535 0 -535 0 0 -470z"/>
<path d="M10290 12750 l0 -470 530 0 530 0 0 464 c0 414 -2 465 -16 470 -9 3
-247 6 -530 6 l-514 0 0 -470z"/>
<path d="M7097 11963 c-62 -40 -63 -209 -1 -249 32 -21 239 -33 272 -15 12 6
32 30 43 53 l21 42 19 -37 c32 -61 48 -67 226 -74 l159 -6 37 38 c20 21 38 36
40 34 2 -2 12 -23 22 -47 10 -24 26 -47 35 -52 16 -9 260 -40 312 -40 15 0 42
12 60 28 20 17 42 26 56 24 20 -3 22 -9 22 -58 l0 -54 93 -68 c110 -82 177
-122 203 -122 11 0 37 9 59 20 22 11 39 20 40 20 0 0 -1 -26 -3 -58 -4 -74 6
-88 143 -182 113 -78 130 -84 182 -69 60 19 114 113 99 173 -9 35 -89 114
-172 170 -75 50 -116 58 -168 31 -15 -8 -32 -15 -37 -15 -5 0 -9 26 -9 58 0
31 -6 68 -13 82 -7 13 -64 59 -126 102 -129 88 -160 96 -221 54 -47 -31 -98
-26 -106 13 -12 53 -17 67 -36 93 -24 34 -61 44 -209 58 -133 13 -154 8 -195
-45 l-28 -37 -22 50 c-34 77 -54 86 -210 90 -166 5 -192 -2 -222 -63 -12 -25
-25 -45 -29 -45 -5 0 -21 25 -37 55 l-28 55 -63 0 c-34 0 -89 2 -121 5 -46 5
-65 2 -87 -12z m229 -59 c41 -20 42 -28 7 -59 l-28 -24 30 -25 c17 -13 26 -28
22 -33 -11 -10 -158 -10 -209 0 l-38 8 0 69 c0 45 4 70 13 73 31 13 170 6 203
-9z m496 -24 c35 -35 35 -53 3 -70 -29 -15 -31 -23 -10 -40 35 -29 15 -33
-140 -27 -86 3 -160 9 -167 13 -7 5 -2 14 15 29 l27 21 -25 34 c-14 19 -25 35
-25 37 0 2 15 10 33 18 22 10 68 14 146 14 112 -1 115 -1 143 -29z m368 -36
c88 -7 105 -15 125 -54 19 -36 19 -40 -1 -40 -8 0 -24 -5 -36 -11 -20 -11 -19
-11 8 -41 l29 -30 -85 6 c-161 13 -224 26 -242 49 -22 28 -22 37 0 37 36 0 44
14 27 53 -8 20 -15 39 -15 43 0 3 26 3 58 0 31 -3 91 -8 132 -12z m459 -181
c88 -56 141 -103 141 -125 0 -11 -11 -33 -25 -50 -14 -16 -25 -38 -25 -49 0
-26 -16 -24 -75 11 -103 60 -190 134 -193 163 -3 22 1 27 18 27 15 0 26 11 36
36 13 31 18 35 41 29 14 -3 51 -22 82 -42z m426 -310 l117 -77 -5 -43 c-12
-105 -61 -119 -165 -46 -122 85 -152 113 -152 139 0 19 5 24 25 24 21 0 25 5
25 28 0 26 15 52 31 52 4 0 59 -35 124 -77z"/>
<path d="M6178 11960 c-37 -3 -72 -10 -77 -15 -6 -6 -21 -33 -35 -60 l-23 -49
-18 34 c-40 80 -40 80 -215 80 -179 0 -188 -3 -231 -84 -13 -25 -26 -46 -29
-46 -3 1 -17 19 -32 40 -28 40 -28 40 -95 40 -102 0 -245 -19 -270 -35 -26
-17 -53 -66 -63 -110 -4 -24 -13 -31 -41 -38 -31 -7 -42 -4 -74 17 -57 39 -80
34 -196 -43 -147 -98 -154 -107 -154 -190 l0 -68 -43 18 c-71 31 -91 26 -209
-55 -122 -82 -157 -123 -142 -162 5 -14 9 -36 9 -49 0 -31 43 -81 90 -105 l38
-19 112 77 c62 42 127 89 143 105 29 27 30 30 23 93 -7 65 -6 66 16 59 13 -4
35 -14 50 -21 42 -22 65 -17 131 28 87 58 180 128 195 146 6 9 12 37 12 64 0
47 1 48 31 48 19 0 43 -10 62 -26 30 -26 34 -26 127 -19 138 9 228 28 245 51
8 10 17 34 21 52 3 18 10 35 16 38 5 3 27 -13 49 -36 l41 -42 152 4 c83 3 159
8 169 13 10 4 29 27 43 51 14 24 29 44 33 44 5 0 22 -23 40 -51 l32 -51 123 4
c138 4 150 9 168 69 6 22 14 39 18 39 11 0 -7 105 -21 129 -20 31 -91 41 -221
31z m176 -72 c14 -67 15 -98 6 -122 -9 -26 -10 -26 -117 -26 -130 0 -151 9
-108 44 25 20 28 26 16 40 -7 9 -20 16 -27 16 -34 0 -1 47 41 59 17 4 65 9
107 10 73 1 78 0 82 -21z m-398 -13 c4 -16 0 -34 -10 -50 -21 -32 -20 -45 4
-45 26 0 25 -15 -2 -34 -29 -21 -310 -24 -290 -4 21 21 14 54 -13 66 -21 10
-24 15 -16 29 28 48 26 48 163 54 73 3 139 6 145 7 7 1 15 -9 19 -23z m-491
-66 c-31 -37 -28 -53 8 -57 15 -2 27 -8 27 -13 0 -19 -49 -59 -72 -59 -13 -1
-75 -7 -138 -15 -63 -7 -117 -12 -119 -10 -2 2 6 17 18 34 l21 30 -34 12 -35
13 20 37 c17 35 22 38 76 44 32 4 63 8 68 10 6 2 50 4 98 4 l89 1 -27 -31z
m-521 -144 c6 -29 11 -35 31 -35 21 0 25 -5 25 -29 0 -25 -13 -38 -87 -94 -87
-64 -128 -88 -170 -101 -20 -7 -21 -4 -16 29 5 32 3 36 -26 46 -36 13 -36 11
-16 52 17 35 202 167 234 167 13 0 21 -10 25 -35z m-404 -299 c0 -30 4 -35 30
-41 26 -6 28 -9 20 -25 -6 -11 -54 -50 -108 -87 -53 -37 -100 -72 -105 -79 -5
-9 -14 -10 -35 -2 -22 9 -30 20 -38 55 -9 38 -8 48 8 68 23 29 194 145 214
145 9 0 14 -11 14 -34z"/>
<path d="M5985 11038 c-396 -313 -721 -574 -723 -579 -2 -5 584 -9 1470 -9
l1473 1 -44 37 c-24 20 -353 281 -730 579 -406 322 -694 542 -706 542 -11 0
-344 -257 -740 -571z"/>
<path d="M9763 11401 c-23 -17 -74 -73 -113 -125 -39 -52 -83 -105 -98 -118
-15 -13 -98 -63 -185 -112 l-157 -89 0 -52 c0 -41 5 -56 23 -73 21 -20 34 -22
125 -22 63 0 124 6 160 16 l57 16 0 76 c1 93 26 149 83 187 60 39 125 43 206
10 17 -8 18 -2 15 116 -3 103 -8 130 -25 159 -11 19 -27 36 -35 38 -8 1 -34
-11 -56 -27z"/>
<path d="M10186 10883 c-36 -54 -76 -111 -89 -128 l-24 -29 -121 22 c-181 33
-166 40 -159 -73 l6 -95 -169 0 c-94 0 -170 -3 -170 -7 0 -19 55 -113 65 -113
7 0 20 -9 31 -21 29 -33 154 -106 226 -133 l66 -25 7 47 c29 197 189 287 360
203 35 -17 65 -31 68 -31 4 0 16 75 32 215 10 81 -29 265 -55 265 -4 0 -37
-44 -74 -97z"/>
<path d="M10595 10330 c-11 -4 -51 -36 -90 -71 -165 -148 -335 -249 -476 -283
-36 -9 -103 -16 -148 -16 l-83 0 6 -32 c16 -79 100 -146 237 -189 98 -32 129
-33 129 -5 0 34 45 131 77 167 71 78 150 86 288 28 89 -38 82 -42 122 76 34
101 35 194 4 278 -23 58 -30 63 -66 47z"/>
<path d="M5350 10297 c14 -12 173 -147 353 -301 180 -153 327 -280 327 -283 0
-2 -14 -24 -30 -49 -48 -69 -108 -201 -131 -289 -28 -103 -30 -288 -6 -388 78
-315 313 -560 624 -649 113 -32 324 -32 438 0 337 96 581 370 635 712 31 201
-19 415 -140 601 -29 43 -49 82 -47 87 3 4 173 136 377 293 l372 284 -43 3
c-23 2 -45 -1 -48 -6 -9 -14 -646 -510 -688 -535 -10 -6 -28 4 -56 30 -87 80
-216 153 -342 193 -107 34 -310 39 -428 11 -148 -35 -290 -110 -402 -212 l-52
-49 -324 276 c-178 152 -325 280 -327 285 -2 5 -22 9 -45 9 l-42 -1 25 -22z
m1540 -302 c260 -61 465 -225 576 -460 63 -134 78 -206 78 -365 0 -149 -16
-230 -74 -356 -78 -172 -234 -327 -413 -409 -101 -47 -176 -65 -299 -72 -357
-20 -666 164 -817 489 -56 120 -76 218 -75 363 2 143 25 240 84 360 113 229
326 395 575 450 84 19 285 18 365 0z"/>
<path d="M6627 9939 c-318 -35 -585 -265 -669 -578 -31 -116 -28 -278 7 -396
66 -225 204 -387 410 -486 105 -51 179 -70 296 -76 361 -20 689 225 786 587
24 90 23 271 -1 365 -40 153 -115 276 -237 389 -152 140 -386 217 -592 195z
m186 -24 c9 -4 23 -5 31 -2 7 3 26 -1 41 -9 15 -8 37 -14 48 -14 35 0 178 -77
247 -133 210 -171 312 -442 266 -705 -32 -177 -86 -288 -196 -401 -157 -160
-359 -240 -579 -229 -129 7 -279 53 -375 116 -155 103 -271 263 -318 441 -33
126 -23 408 15 436 8 6 17 27 21 47 9 50 96 181 165 248 114 111 227 169 383
196 51 9 95 18 98 20 6 7 131 -3 153 -11z"/>
<path d="M6625 9516 c-108 -27 -196 -100 -241 -199 -24 -52 -28 -75 -29 -147
0 -73 4 -93 27 -140 41 -84 90 -135 166 -172 61 -30 74 -33 162 -33 79 0 103
4 142 24 75 37 134 95 170 169 30 60 33 75 33 157 0 110 -20 160 -95 239 -86
91 -220 132 -335 102z m219 -39 c73 -34 130 -88 163 -155 25 -50 28 -68 28
-152 0 -85 -3 -101 -28 -149 -39 -74 -106 -135 -175 -161 -80 -31 -205 -25
-277 12 -268 139 -234 530 54 623 64 21 167 13 235 -18z"/>
<path d="M6653 9280 c-53 -21 -78 -111 -49 -169 46 -87 184 -72 216 24 32 96
-70 184 -167 145z m113 -28 c81 -65 39 -182 -65 -182 -36 0 -86 40 -95 76 -9
34 10 90 37 109 29 20 97 19 123 -3z"/>
<path d="M10865 9743 c-37 -9 -142 -92 -252 -196 l-108 -104 -110 -17 c-129
-21 -197 -45 -245 -84 l-34 -29 13 -44 c18 -60 91 -130 165 -158 70 -26 86
-26 86 -1 0 82 100 212 174 226 100 18 205 -16 289 -95 26 -24 50 -42 53 -39
3 3 21 68 41 144 31 120 36 156 37 261 1 66 -1 123 -4 126 -9 8 -84 15 -105
10z"/>
<path d="M5290 9239 l-54 -62 30 -26 c16 -14 56 -49 88 -77 l59 -50 -97 -173
-96 -174 0 -195 c0 -108 4 -192 8 -187 5 6 76 159 157 340 82 182 150 332 152
334 2 2 31 -8 65 -22 70 -31 68 -32 127 53 l42 59 -38 24 c-85 53 -372 217
-381 217 -5 0 -33 -28 -62 -61z"/>
<path d="M7936 9165 c-43 -18 -80 -36 -83 -39 -10 -9 375 -736 390 -736 4 0 7
102 5 228 l-3 227 -50 87 c-27 48 -72 127 -98 177 -32 61 -53 91 -65 91 -9 0
-52 -16 -96 -35z"/>
<path d="M11198 8966 c-88 -36 -225 -133 -313 -221 l-80 -80 -235 1 c-207 0
-243 3 -300 21 -36 11 -71 22 -78 24 -8 2 -20 -5 -28 -17 -13 -19 -11 -28 23
-95 76 -149 212 -258 341 -274 52 -7 53 -7 101 38 119 112 221 118 352 21 34
-24 55 -34 69 -29 11 3 55 41 98 83 131 128 169 246 138 427 -9 53 -20 103
-24 110 -6 11 -18 9 -64 -9z"/>
<path d="M8400 8308 l0 -228 31 -50 c20 -33 36 -49 45 -46 8 3 21 9 29 12 27
11 16 -11 -15 -30 l-31 -18 54 -101 c30 -56 89 -168 131 -249 l77 -148 50 0
c56 0 58 -4 38 -102 -11 -53 -10 -58 17 -104 16 -27 72 -132 126 -234 53 -102
101 -184 107 -183 6 2 8 -3 5 -11 -3 -7 117 -245 265 -529 149 -284 288 -550
308 -592 l37 -75 51 -1 c61 0 134 -27 149 -54 6 -11 19 -32 29 -48 l19 -27 28
20 c16 11 59 35 97 53 131 62 274 36 378 -68 58 -58 98 -141 103 -219 l5 -59
68 5 c106 8 183 51 294 163 54 54 111 124 143 176 l52 85 -16 50 c-9 27 -18
50 -20 52 -1 2 -87 -4 -191 -13 -213 -20 -332 -16 -439 14 -130 37 -280 115
-425 222 -44 33 -76 49 -96 49 -29 0 -30 -2 -48 -80 -10 -45 -22 -83 -26 -85
-8 -6 -462 840 -464 865 -2 25 -94 200 -105 200 -6 0 -10 7 -10 15 0 8 -53
115 -118 237 -242 455 -466 873 -469 877 -2 3 -28 -7 -58 -22 -30 -15 -55 -25
-55 -22 0 3 23 16 50 30 28 14 50 28 50 32 0 7 -180 347 -224 423 l-26 45 0
-227z m830 -1399 c-24 -16 -156 -82 -148 -74 12 13 142 84 153 84 6 1 3 -4 -5
-10z"/>
<path d="M5019 8278 c-44 -79 -567 -1034 -692 -1263 -71 -130 -89 -155 -228
-303 l-106 -114 35 -91 c55 -147 82 -296 89 -494 5 -154 8 -171 22 -163 21 11
266 212 308 252 l32 31 3 271 3 271 54 120 c29 66 79 177 111 247 l57 126 -23
124 c-13 67 -23 136 -24 151 l0 28 88 -7 88 -7 73 164 c41 90 92 200 114 244
l40 80 5 190 c2 105 3 198 1 208 -3 11 -20 -12 -50 -65z"/>
<path d="M11375 7977 c-22 -13 -88 -61 -148 -108 -169 -135 -247 -164 -432
-163 -107 0 -115 2 -295 61 -102 34 -202 64 -222 68 -35 7 -38 6 -38 -17 0
-39 28 -135 55 -187 38 -77 115 -161 226 -251 l102 -82 46 45 c68 66 123 91
201 92 78 0 132 -24 202 -92 l46 -46 64 49 c196 150 278 314 278 559 0 92 -1
95 -22 95 -13 0 -41 -11 -63 -23z"/>
<path d="M6695 7789 c-143 -113 -373 -233 -585 -303 -315 -104 -622 -146
-1077 -146 l-213 0 0 -27 0 -26 293 6 c318 7 513 24 697 62 304 61 589 176
809 324 50 33 95 61 101 61 6 0 10 -49 10 -129 0 -103 -4 -143 -21 -197 -20
-63 -20 -74 -8 -161 l13 -93 -33 -86 c-28 -73 -32 -95 -27 -138 22 -179 20
-229 -14 -341 -43 -141 -40 -189 19 -308 47 -93 59 -152 47 -231 -6 -40 -10
-46 -31 -46 -37 0 -53 10 -76 46 -11 19 -33 41 -48 49 -25 12 -32 12 -62 -3
-45 -23 -79 -75 -79 -124 0 -30 8 -47 34 -75 33 -37 36 -38 108 -38 40 0 97 4
126 8 l52 8 0 -86 0 -85 -35 0 c-65 0 -134 -21 -165 -50 -25 -23 -30 -36 -30
-72 1 -58 28 -114 81 -167 50 -50 93 -71 143 -71 28 0 41 7 65 38 17 20 41 62
54 92 20 50 22 71 21 232 l-1 177 136 3 136 3 -65 66 c-36 36 -88 85 -117 110
-49 41 -54 50 -79 134 -38 129 -44 292 -15 395 l20 74 -29 85 c-33 94 -35 127
-19 252 9 64 9 131 -1 279 -11 181 -15 204 -52 319 -21 69 -38 135 -36 148 3
21 10 17 100 -50 352 -261 781 -396 1388 -436 85 -6 219 -13 298 -16 l142 -6
0 29 0 29 -247 6 c-715 17 -1237 170 -1605 470 -32 26 -61 47 -65 46 -5 0 -30
-18 -58 -40z"/>
<path d="M10216 6807 c-53 -70 -57 -175 -11 -275 23 -49 110 -172 121 -172 3
0 28 20 56 44 115 100 253 133 360 84 108 -50 167 -140 176 -270 6 -89 3 -87
97 -63 85 22 156 68 239 155 108 113 178 264 202 434 6 45 5 49 -12 43 -11 -3
-77 -26 -149 -51 -172 -59 -330 -89 -470 -90 -95 -1 -121 3 -195 27 -95 32
-246 95 -332 138 l-57 29 -25 -33z"/>
<path d="M9364 5337 c-57 -59 -87 -125 -104 -229 -14 -90 -24 -288 -16 -332 7
-36 7 -37 44 -29 72 15 204 9 247 -12 123 -60 187 -207 155 -360 -7 -33 -15
-65 -17 -72 -8 -19 272 -17 355 2 142 34 252 116 348 262 59 90 65 119 34 170
-39 64 -109 86 -323 103 -191 14 -256 28 -283 57 -12 13 -50 94 -84 179 -100
248 -155 313 -264 314 -35 0 -46 -6 -92 -53z"/>
<path d="M11066 5273 c-49 -101 -157 -295 -214 -382 -29 -47 -56 -93 -58 -104
-7 -38 -182 -260 -346 -439 -134 -145 -399 -379 -585 -516 -21 -16 -26 -24
-18 -35 6 -8 24 -35 42 -59 59 -82 58 -83 -64 -174 -436 -324 -917 -571 -1443
-742 -180 -59 -230 -72 -279 -77 -20 -2 -101 -20 -181 -39 -184 -45 -387 -80
-610 -107 -223 -26 -687 -36 -915 -20 -882 65 -1712 333 -2418 783 -127 80
-337 229 -356 252 -10 12 -4 26 38 84 28 38 51 74 51 80 0 5 -26 29 -57 53
-298 222 -622 543 -831 823 -134 180 -268 405 -343 575 l-33 74 -13 -31 c-22
-53 -36 -229 -30 -364 10 -212 57 -400 143 -572 24 -49 42 -91 40 -93 -9 -9
-170 51 -254 94 -141 73 -263 165 -414 312 -76 74 -140 132 -143 130 -2 -3 11
-51 30 -107 129 -384 329 -722 650 -1098 l35 -42 -70 -58 -69 -58 52 -55 c84
-91 294 -286 412 -386 849 -712 1939 -1187 3075 -1339 329 -44 446 -51 850
-51 404 0 521 7 848 51 736 98 1469 339 2118 694 473 259 944 600 1323 956
l83 78 -67 64 -67 64 28 33 c324 380 418 515 559 795 96 191 214 485 200 498
-3 3 -35 -27 -73 -66 -223 -236 -484 -410 -697 -466 l-53 -13 49 101 c98 207
139 392 139 632 0 134 -14 283 -29 312 -4 7 -18 -11 -35 -45z m23 -253 c2
-281 -66 -530 -204 -746 l-37 -57 55 6 c197 24 462 166 695 374 39 36 72 62
72 59 0 -27 -135 -313 -208 -441 -128 -225 -359 -534 -491 -659 l-31 -30 -27
25 c-16 14 -127 115 -248 224 -121 109 -237 214 -257 233 l-37 35 -73 -69
c-95 -90 -324 -284 -335 -284 -4 0 -26 26 -47 57 l-39 56 25 21 c14 12 75 60
136 109 417 329 796 782 999 1192 47 94 51 86 52 -105z m-8404 -245 c233 -348
538 -671 882 -933 l92 -70 -40 -56 c-22 -31 -44 -56 -49 -56 -15 0 -233 186
-356 304 l-112 106 -163 -142 c-90 -78 -219 -190 -286 -250 -66 -59 -124 -108
-128 -108 -20 0 -241 280 -345 437 -92 138 -237 416 -285 547 l-25 69 29 -24
c17 -13 58 -49 93 -80 143 -128 315 -231 472 -284 75 -25 208 -56 214 -50 2 2
-21 44 -52 95 -139 231 -209 551 -180 828 l7 62 69 -128 c38 -70 111 -190 163
-267z m525 -869 c568 -548 1326 -971 2145 -1195 405 -111 809 -168 1265 -178
298 -6 519 5 785 38 1001 127 1932 532 2705 1178 63 53 148 127 187 165 l73
68 152 -138 c84 -77 237 -215 340 -308 l187 -170 -77 -71 c-860 -798 -1904
-1335 -3034 -1559 -186 -37 -453 -76 -678 -98 -182 -18 -858 -18 -1040 0 -74
7 -218 25 -320 38 -1259 168 -2472 744 -3333 1583 -81 79 -146 148 -145 153 3
9 669 596 677 597 2 1 52 -46 111 -103z"/>
<path d="M2954 3616 c-47 -47 -47 -95 1 -180 35 -62 35 -63 15 -81 -17 -15
-24 -16 -49 -5 -36 15 -43 30 -35 80 5 32 3 40 -14 49 -33 17 -42 13 -58 -24
-19 -47 -18 -84 6 -122 25 -42 68 -63 128 -63 45 0 53 4 81 35 17 20 33 46 37
60 7 29 -11 87 -43 138 -27 42 -27 70 -1 75 24 5 58 -33 58 -66 0 -32 25 -72
44 -72 21 0 39 56 33 103 -8 60 -63 107 -125 107 -37 0 -50 -6 -78 -34z"/>
<path d="M10415 3586 c-17 -7 -43 -28 -58 -45 -22 -27 -27 -42 -27 -89 0 -70
24 -124 76 -174 67 -63 144 -84 203 -54 39 20 87 77 101 120 11 34 10 37 -41
101 -29 36 -55 65 -57 65 -11 0 -111 -86 -112 -96 0 -6 11 -21 25 -34 l25 -23
24 22 c28 27 46 21 46 -15 0 -30 -41 -74 -70 -74 -70 0 -162 110 -146 175 9
36 69 64 98 46 18 -11 23 -10 44 16 31 37 30 42 -11 59 -42 17 -80 17 -120 0z"/>
<path d="M3209 3458 c-19 -24 -75 -92 -123 -152 -85 -106 -86 -109 -69 -129
14 -16 105 -90 169 -138 6 -5 19 3 33 22 l23 31 -38 32 c-22 17 -52 43 -68 57
l-30 26 25 31 c13 17 27 31 31 31 3 1 31 -19 61 -44 31 -25 59 -45 64 -45 9 0
47 59 41 65 -1 2 -29 23 -60 47 l-57 44 23 28 22 28 64 -51 c35 -28 66 -51 70
-51 3 0 16 13 28 29 l21 29 -93 76 c-52 42 -95 76 -98 76 -2 0 -20 -19 -39
-42z"/>
<path d="M10212 3414 c-12 -8 -22 -19 -22 -23 0 -4 27 -44 60 -89 33 -45 60
-84 60 -87 0 -3 -51 21 -114 52 l-113 56 -26 -19 c-15 -10 -26 -21 -26 -24 0
-10 225 -314 235 -317 5 -1 20 6 33 16 l25 19 -62 85 c-34 47 -62 88 -62 92 0
4 49 -19 109 -51 l108 -57 32 22 32 23 -24 31 c-13 18 -65 89 -116 160 -51 70
-96 127 -100 127 -3 0 -17 -7 -29 -16z"/>
<path d="M3346 3171 c-64 -88 -116 -162 -116 -165 0 -3 46 -38 101 -77 l102
-73 18 23 c11 13 19 29 19 35 0 7 -29 34 -65 59 l-66 47 18 31 c10 17 23 33
30 36 6 3 36 -14 66 -36 29 -23 57 -41 61 -41 10 0 45 42 46 55 0 6 -12 18
-27 27 -16 9 -43 29 -61 45 l-32 28 18 28 19 27 69 -50 69 -51 22 28 c13 15
23 31 23 34 0 3 -30 27 -67 54 -38 26 -82 59 -99 72 l-32 24 -116 -160z"/>
<path d="M9960 3231 l-24 -19 66 -99 c90 -136 101 -159 88 -183 -16 -29 -56
-36 -82 -14 -11 11 -52 65 -90 122 -37 56 -73 102 -79 102 -6 0 -35 -15 -65
-32 l-54 -33 0 -77 c0 -43 -2 -78 -5 -78 -3 0 -30 18 -60 40 -30 22 -60 40
-67 40 -19 0 -58 -29 -58 -43 0 -7 46 -41 101 -77 95 -61 103 -69 141 -137 22
-40 42 -73 44 -73 4 0 42 22 63 36 2 2 -14 31 -35 65 -33 55 -39 74 -47 160
-8 78 -8 101 3 114 12 14 16 11 39 -28 45 -77 114 -165 142 -181 104 -61 235
55 184 163 -26 55 -159 250 -170 251 -5 0 -21 -9 -35 -19z"/>
<path d="M3576 3003 l-105 -168 22 -17 c12 -10 27 -18 33 -18 6 0 36 39 65 88
52 83 54 86 57 55 2 -17 -1 -71 -7 -120 -9 -84 -9 -89 12 -105 12 -10 29 -17
37 -15 15 2 209 303 210 324 0 14 -31 33 -52 33 -7 0 -37 -41 -67 -91 -29 -49
-55 -88 -57 -86 -2 1 2 58 8 126 l12 123 -25 19 c-13 10 -27 19 -31 19 -3 0
-54 -75 -112 -167z"/>
<path d="M3899 2993 c-7 -16 -15 -31 -17 -35 -2 -4 15 -16 38 -28 22 -11 39
-24 37 -28 -2 -4 -36 -66 -76 -138 -39 -72 -71 -133 -71 -137 0 -7 60 -40 65
-35 1 2 35 63 75 136 40 72 78 132 84 132 6 -1 22 -7 36 -15 14 -8 30 -14 35
-15 9 0 49 60 43 65 -8 6 -227 125 -231 125 -2 0 -10 -12 -18 -27z"/>
<path d="M9435 2923 c-16 -8 -31 -16 -32 -17 -1 -1 11 -91 27 -200 17 -109 30
-202 30 -207 0 -5 16 -1 36 9 35 16 36 18 31 63 l-6 46 50 23 49 24 34 -33 34
-33 38 20 39 20 -145 150 c-80 82 -147 150 -150 150 -3 1 -18 -6 -35 -15z
m105 -212 c-16 -8 -32 -13 -34 -10 -2 2 -7 27 -11 54 l-7 50 42 -40 41 -40
-31 -14z"/>
<path d="M4061 2710 l-143 -150 36 -17 36 -17 34 33 34 33 51 -27 52 -26 -6
-44 c-7 -41 -6 -44 25 -60 17 -9 34 -14 37 -11 3 2 16 83 29 178 13 95 26 185
29 200 4 23 -1 30 -25 43 -16 8 -33 15 -38 15 -5 0 -73 -67 -151 -150z m122
-27 c-3 -27 -7 -50 -9 -52 -2 -2 -17 2 -34 9 l-31 13 37 38 c21 22 39 39 41
39 1 0 0 -21 -4 -47z"/>
<path d="M9113 2772 c-35 -15 -63 -31 -63 -37 -1 -25 146 -355 158 -355 30 0
158 68 175 93 22 34 22 118 1 182 -10 29 -35 67 -64 97 -43 45 -50 48 -96 48
-31 -1 -72 -11 -111 -28z m162 -65 c32 -32 65 -114 65 -162 0 -29 -64 -85 -98
-85 -10 0 -116 239 -109 246 6 6 81 33 96 33 7 1 28 -14 46 -32z"/>
<path d="M4372 2727 c-104 -238 -135 -318 -125 -328 5 -5 22 -11 38 -12 24 -2
29 3 47 49 15 39 28 55 54 67 l34 17 0 -95 0 -95 33 -20 c54 -33 61 -28 54 43
-3 34 -9 94 -13 134 l-6 71 63 33 c35 17 75 39 87 47 l24 16 -34 17 c-48 26
-58 24 -142 -26 -42 -25 -78 -45 -81 -45 -2 0 6 24 19 53 41 91 41 92 1 104
-35 11 -35 11 -53 -30z"/>
<path d="M8868 2657 c-16 -6 -28 -14 -28 -19 0 -4 11 -37 24 -72 l25 -65 -49
-16 c-27 -9 -53 -14 -58 -11 -5 3 -17 33 -27 67 l-19 61 -34 -6 c-19 -3 -36
-7 -39 -10 -2 -2 24 -88 59 -191 l63 -186 30 6 c16 3 33 9 38 14 4 4 -3 38
-18 76 -14 37 -25 71 -25 76 0 10 39 27 80 36 25 4 27 0 50 -72 21 -67 26 -76
44 -71 12 3 27 6 34 6 6 0 12 10 12 23 -1 31 -114 360 -126 363 -5 1 -21 -3
-36 -9z"/>
<path d="M4827 2565 c-84 -29 -129 -102 -135 -219 -4 -77 -3 -83 23 -114 46
-55 111 -78 180 -62 22 5 45 17 53 27 11 15 40 104 46 137 2 12 -126 58 -135
49 -5 -5 -11 -22 -15 -39 -5 -27 -2 -31 31 -43 35 -12 36 -14 19 -32 -25 -28
-79 -25 -111 7 -22 22 -24 30 -18 72 9 58 38 118 65 132 12 6 35 10 53 8 26
-2 36 -11 55 -46 20 -36 28 -43 51 -40 22 3 26 8 29 38 7 89 -98 157 -191 125z"/>
<path d="M8572 2560 c-16 -7 -22 -15 -18 -27 35 -115 47 -157 60 -211 14 -60
14 -64 -5 -83 -23 -23 -52 -24 -73 -3 -14 14 -41 92 -78 229 -13 47 -16 50
-43 47 -17 -2 -33 -7 -37 -11 -8 -7 49 -218 75 -281 21 -50 49 -72 100 -77 50
-6 119 23 138 59 17 33 5 129 -33 253 -35 114 -42 122 -86 105z"/>
<path d="M8306 2477 c-44 -13 -43 -13 -89 -119 l-33 -78 -18 75 c-15 65 -21
75 -39 75 -54 -1 -54 -8 -13 -177 60 -245 53 -226 84 -218 41 10 44 18 29 77
-12 47 -12 59 0 81 7 15 17 27 21 27 4 0 22 -20 40 -43 80 -104 73 -99 126
-86 55 14 58 7 -57 132 l-77 85 40 87 c22 48 40 89 40 91 0 6 -10 4 -54 -9z"/>
<path d="M5061 2311 c-62 -93 -110 -174 -106 -180 12 -21 65 -12 90 15 14 15
25 30 25 34 0 5 27 1 60 -8 l60 -16 0 -46 c0 -45 1 -47 37 -58 l36 -11 -7 207
c-3 113 -10 209 -14 213 -4 4 -21 10 -38 13 -30 7 -32 5 -143 -163z m119 -17
l0 -56 -27 7 c-16 4 -30 8 -32 10 -3 4 51 95 57 95 1 0 2 -25 2 -56z"/>
<path d="M5370 2417 c0 -4 -18 -85 -41 -182 -22 -97 -39 -182 -36 -189 3 -7
61 -25 128 -40 189 -44 172 -44 194 4 20 44 12 42 105 24 30 -6 36 -15 42 -74
3 -21 9 -25 41 -28 25 -2 37 1 37 10 0 7 -12 98 -27 201 -25 178 -28 189 -50
198 -37 14 -61 11 -67 -8 -4 -10 -45 -90 -91 -178 -67 -125 -85 -152 -83 -125
l3 34 -70 14 c-38 8 -72 16 -74 18 -2 2 11 71 30 153 18 83 31 153 28 156 -8
8 -69 18 -69 12z m367 -304 c-3 -3 -19 -2 -36 2 l-31 7 27 51 28 50 8 -52 c5
-29 6 -55 4 -58z"/>
<path d="M7852 2370 c-90 -55 -95 -236 -10 -334 54 -61 130 -68 215 -19 52 29
59 50 43 143 -13 79 -11 77 -104 58 -57 -11 -58 -12 -52 -41 3 -16 6 -33 6
-37 0 -5 18 -6 40 -3 35 5 40 3 40 -14 0 -40 -69 -75 -108 -54 -36 19 -66 100
-63 169 1 23 51 82 69 82 5 0 26 -12 47 -26 33 -22 41 -24 66 -13 16 6 29 13
29 16 0 19 -36 66 -60 78 -42 22 -118 19 -158 -5z"/>
<path d="M7672 2342 c-31 -3 -32 -5 -27 -35 21 -115 33 -192 31 -195 -2 -1
-36 45 -77 102 -73 103 -74 104 -109 99 -19 -3 -36 -6 -36 -7 -1 -1 12 -90 29
-198 l31 -197 31 6 c16 3 32 8 34 10 3 2 -2 49 -11 106 -10 56 -16 103 -14
104 1 2 35 -42 75 -97 70 -96 73 -99 104 -93 18 3 34 7 36 9 5 5 -47 348 -57
371 -5 13 -16 17 -40 15z"/>
<path d="M5890 2120 c-13 -105 -21 -192 -18 -195 2 -3 18 -8 35 -11 30 -6 31
-5 37 43 4 26 9 64 12 83 l5 35 52 -5 52 -5 -3 -87 -4 -88 36 0 c20 0 36 3 36
8 0 4 9 79 20 167 27 221 28 215 -14 215 -34 0 -35 -1 -41 -47 -12 -95 -13
-96 -47 -89 -17 3 -42 6 -55 6 -24 0 -25 2 -18 53 3 28 8 64 11 80 5 26 4 27
-34 27 l-39 0 -23 -190z"/>
<path d="M7263 2288 c-81 -10 -82 -10 -78 -36 2 -15 12 -105 21 -200 l17 -173
26 5 c14 3 62 8 106 11 112 9 115 10 115 51 0 33 -1 34 -37 33 -21 0 -61 -4
-90 -8 l-51 -7 -6 35 c-10 59 -9 59 57 66 87 9 97 13 97 38 0 44 -12 49 -92
42 l-76 -7 -4 35 -4 35 56 7 c108 12 110 13 110 51 0 34 -1 34 -42 33 -24 -1
-80 -6 -125 -11z"/>
<path d="M6357 2259 c-43 -25 -60 -106 -32 -158 14 -27 35 -40 118 -75 45 -18
55 -40 32 -66 -28 -31 -60 -25 -91 15 -21 28 -33 35 -60 35 -39 0 -41 -8 -14
-67 70 -156 300 -73 248 90 -12 38 -19 45 -85 77 -93 45 -104 57 -79 76 34 24
66 18 79 -16 10 -26 16 -30 49 -30 32 0 38 3 38 20 0 29 -26 76 -52 94 -26 18
-123 21 -151 5z"/>
<path d="M6901 2263 c-22 -4 -23 -8 -17 -56 3 -29 8 -116 12 -194 l7 -143 36
0 37 0 -4 87 -5 86 33 -19 c19 -11 50 -46 70 -79 35 -58 38 -60 83 -63 26 -2
47 -1 47 2 0 8 -60 108 -81 135 -19 23 -18 24 6 53 14 16 28 40 31 54 10 38
-5 94 -31 120 -22 22 -32 24 -112 23 -48 -1 -99 -4 -112 -6z m163 -63 c22 -8
26 -16 26 -50 0 -45 -1 -46 -82 -54 l-58 -6 0 54 c0 49 2 55 23 59 41 8 65 7
91 -3z"/>
<path d="M6600 2143 c0 -65 3 -155 7 -200 l6 -83 123 0 124 0 0 40 0 40 -90 0
-90 0 0 45 0 45 80 0 80 0 0 40 0 40 -80 0 c-57 0 -80 4 -80 13 0 6 -3 22 -6
35 -6 22 -5 22 85 22 l91 0 0 40 0 40 -125 0 -125 0 0 -117z"/>
<path d="M8620 4807 c-62 -29 -148 -118 -198 -203 -56 -97 -94 -217 -132 -412
-44 -234 -76 -325 -148 -434 l-25 -38 -121 0 c-298 0 -694 -31 -966 -76 -190
-31 -263 -47 -267 -60 -2 -5 54 -26 124 -47 l128 -38 135 31 c74 17 227 46
340 66 263 44 346 59 504 90 129 26 130 26 215 9 47 -9 164 -39 261 -67 255
-72 372 -98 485 -104 164 -10 287 31 403 132 67 59 87 119 79 242 -11 187
-133 319 -320 347 l-47 7 8 42 c4 22 7 91 7 151 0 98 -3 116 -26 166 -52 111
-138 177 -266 204 -90 19 -120 18 -173 -8z"/>
<path d="M6404 3469 c-46 -8 -123 -45 -239 -114 -153 -90 -294 -214 -399 -350
-62 -80 -126 -178 -126 -193 0 -5 64 -23 143 -41 78 -18 149 -34 158 -37 11
-3 31 20 67 78 136 222 307 384 532 505 139 75 154 85 138 94 -7 4 -63 20
-123 36 -84 23 -120 28 -151 22z"/>
</g>
</svg>
